<mxfile modified="2023-10-15T10:07:53.249Z" host="Electron" agent="Mozilla/5.0 (Windows NT 10.0; Win64; x64) AppleWebKit/537.36 (KHTML, like Gecko) draw.io/22.0.2 Chrome/114.0.5735.289 Electron/25.8.4 Safari/537.36" etag="jXGVXa1fguT-ZyJRB42M" version="22.0.2" type="device">
  <diagram id="Ht1M8jgEwFfnCIfOTk4-" name="Page-1">
    <mxGraphModel dx="1276" dy="606" grid="0" gridSize="10" guides="1" tooltips="1" connect="1" arrows="1" fold="1" page="1" pageScale="1" pageWidth="1169" pageHeight="827" math="0" shadow="0">
      <root>
        <mxCell id="0" />
        <mxCell id="1" parent="0" />
        <mxCell id="UEzPUAAOIrF-is8g5C7q-137" value="" style="edgeStyle=orthogonalEdgeStyle;rounded=0;orthogonalLoop=1;jettySize=auto;html=1;startArrow=none;startFill=0;endArrow=open;endFill=0;strokeWidth=2;strokeColor=#808080;" parent="1" source="UEzPUAAOIrF-is8g5C7q-117" target="UEzPUAAOIrF-is8g5C7q-118" edge="1">
          <mxGeometry relative="1" as="geometry" />
        </mxCell>
        <mxCell id="4HmFFEVede-YNTlv76Mg-7" style="edgeStyle=orthogonalEdgeStyle;rounded=0;orthogonalLoop=1;jettySize=auto;html=1;" edge="1" parent="1" source="UEzPUAAOIrF-is8g5C7q-116" target="UEzPUAAOIrF-is8g5C7q-117">
          <mxGeometry relative="1" as="geometry">
            <mxPoint x="460" y="390" as="targetPoint" />
            <Array as="points">
              <mxPoint x="390" y="220" />
              <mxPoint x="390" y="381" />
            </Array>
          </mxGeometry>
        </mxCell>
        <mxCell id="UEzPUAAOIrF-is8g5C7q-116" value="MSF Contac" style="outlineConnect=0;fontColor=#232F3E;gradientColor=#60A337;gradientDirection=north;fillColor=#277116;strokeColor=#ffffff;dashed=0;verticalLabelPosition=bottom;verticalAlign=top;align=center;html=1;fontSize=12;fontStyle=0;aspect=fixed;shape=mxgraph.aws4.resourceIcon;resIcon=mxgraph.aws4.s3;labelBackgroundColor=#ffffff;" parent="1" vertex="1">
          <mxGeometry x="128" y="170" width="82" height="82" as="geometry" />
        </mxCell>
        <mxCell id="4HmFFEVede-YNTlv76Mg-17" style="edgeStyle=orthogonalEdgeStyle;rounded=0;orthogonalLoop=1;jettySize=auto;html=1;" edge="1" parent="1" source="UEzPUAAOIrF-is8g5C7q-117" target="4HmFFEVede-YNTlv76Mg-13">
          <mxGeometry relative="1" as="geometry" />
        </mxCell>
        <mxCell id="4HmFFEVede-YNTlv76Mg-18" style="edgeStyle=orthogonalEdgeStyle;rounded=0;orthogonalLoop=1;jettySize=auto;html=1;" edge="1" parent="1" source="UEzPUAAOIrF-is8g5C7q-117" target="4HmFFEVede-YNTlv76Mg-14">
          <mxGeometry relative="1" as="geometry">
            <Array as="points">
              <mxPoint x="670" y="381" />
              <mxPoint x="670" y="481" />
            </Array>
          </mxGeometry>
        </mxCell>
        <mxCell id="UEzPUAAOIrF-is8g5C7q-117" value="AWS Glue" style="outlineConnect=0;fontColor=#232F3E;gradientColor=#945DF2;gradientDirection=north;fillColor=#5A30B5;strokeColor=#ffffff;dashed=0;verticalLabelPosition=bottom;verticalAlign=top;align=center;html=1;fontSize=12;fontStyle=0;aspect=fixed;shape=mxgraph.aws4.resourceIcon;resIcon=mxgraph.aws4.glue;labelBackgroundColor=#ffffff;" parent="1" vertex="1">
          <mxGeometry x="480.0000000000002" y="342" width="78" height="78" as="geometry" />
        </mxCell>
        <mxCell id="UEzPUAAOIrF-is8g5C7q-118" value="Amazon Athena" style="outlineConnect=0;fontColor=#232F3E;gradientColor=#945DF2;gradientDirection=north;fillColor=#5A30B5;strokeColor=#ffffff;dashed=0;verticalLabelPosition=bottom;verticalAlign=top;align=center;html=1;fontSize=12;fontStyle=0;aspect=fixed;shape=mxgraph.aws4.resourceIcon;resIcon=mxgraph.aws4.athena;labelBackgroundColor=#ffffff;" parent="1" vertex="1">
          <mxGeometry x="480" y="510" width="78" height="78" as="geometry" />
        </mxCell>
        <mxCell id="4HmFFEVede-YNTlv76Mg-8" style="edgeStyle=orthogonalEdgeStyle;rounded=0;orthogonalLoop=1;jettySize=auto;html=1;" edge="1" parent="1" source="4HmFFEVede-YNTlv76Mg-1" target="UEzPUAAOIrF-is8g5C7q-117">
          <mxGeometry relative="1" as="geometry" />
        </mxCell>
        <mxCell id="4HmFFEVede-YNTlv76Mg-1" value="MSF Task&lt;br&gt;" style="outlineConnect=0;fontColor=#232F3E;gradientColor=#60A337;gradientDirection=north;fillColor=#277116;strokeColor=#ffffff;dashed=0;verticalLabelPosition=bottom;verticalAlign=top;align=center;html=1;fontSize=12;fontStyle=0;aspect=fixed;shape=mxgraph.aws4.resourceIcon;resIcon=mxgraph.aws4.s3;labelBackgroundColor=#ffffff;" vertex="1" parent="1">
          <mxGeometry x="130.00000000000023" y="300" width="78" height="78" as="geometry" />
        </mxCell>
        <mxCell id="4HmFFEVede-YNTlv76Mg-9" style="edgeStyle=orthogonalEdgeStyle;rounded=0;orthogonalLoop=1;jettySize=auto;html=1;" edge="1" parent="1" source="4HmFFEVede-YNTlv76Mg-2" target="UEzPUAAOIrF-is8g5C7q-117">
          <mxGeometry relative="1" as="geometry" />
        </mxCell>
        <mxCell id="4HmFFEVede-YNTlv76Mg-2" value="MSF Recurring Donation" style="outlineConnect=0;fontColor=#232F3E;gradientColor=#60A337;gradientDirection=north;fillColor=#277116;strokeColor=#ffffff;dashed=0;verticalLabelPosition=bottom;verticalAlign=top;align=center;html=1;fontSize=12;fontStyle=0;aspect=fixed;shape=mxgraph.aws4.resourceIcon;resIcon=mxgraph.aws4.s3;labelBackgroundColor=#ffffff;" vertex="1" parent="1">
          <mxGeometry x="130.00000000000023" y="420" width="78" height="78" as="geometry" />
        </mxCell>
        <mxCell id="4HmFFEVede-YNTlv76Mg-10" style="edgeStyle=orthogonalEdgeStyle;rounded=0;orthogonalLoop=1;jettySize=auto;html=1;" edge="1" parent="1" source="4HmFFEVede-YNTlv76Mg-5" target="UEzPUAAOIrF-is8g5C7q-117">
          <mxGeometry relative="1" as="geometry">
            <mxPoint x="480" y="380" as="targetPoint" />
            <Array as="points">
              <mxPoint x="390" y="579" />
              <mxPoint x="390" y="381" />
            </Array>
          </mxGeometry>
        </mxCell>
        <mxCell id="4HmFFEVede-YNTlv76Mg-5" value="MSF Quota Modification" style="outlineConnect=0;fontColor=#232F3E;gradientColor=#60A337;gradientDirection=north;fillColor=#277116;strokeColor=#ffffff;dashed=0;verticalLabelPosition=bottom;verticalAlign=top;align=center;html=1;fontSize=12;fontStyle=0;aspect=fixed;shape=mxgraph.aws4.resourceIcon;resIcon=mxgraph.aws4.s3;labelBackgroundColor=#ffffff;" vertex="1" parent="1">
          <mxGeometry x="130.00000000000023" y="540" width="78" height="78" as="geometry" />
        </mxCell>
        <mxCell id="4HmFFEVede-YNTlv76Mg-12" style="edgeStyle=orthogonalEdgeStyle;rounded=0;orthogonalLoop=1;jettySize=auto;html=1;" edge="1" parent="1" source="4HmFFEVede-YNTlv76Mg-11">
          <mxGeometry relative="1" as="geometry">
            <mxPoint x="517.27" y="340" as="targetPoint" />
          </mxGeometry>
        </mxCell>
        <mxCell id="4HmFFEVede-YNTlv76Mg-11" value="" style="shape=image;verticalLabelPosition=bottom;labelBackgroundColor=default;verticalAlign=top;aspect=fixed;imageAspect=0;image=data:image/png,iVBORw0KGgoAAAANSUhEUgAAANEAAADyCAMAAADk3NBFAAAAwFBMVEX////zdyZOTk6enp52dndhYmJBQUFERERLS0vj4+Pv7+9AQEDybQDzdiM7OztHR0ewsLDDw8OYmJi6urr5+fnzchjKysrycBGjo6Pz8/PBwcH95djc3Nzp6en+8uvQ0NBubm/71cBYWVmsrKz/+vaHh4dVVVX6x6z5u5v83cz2lV37z7j+7uVfX197e3uSkpL1jk/3n270gzz4tI/5vZ32nGn1iUj3pXgyMjL0fjH4rob5vJv94tLyZAA0NDT2kliQMvSKAAARRUlEQVR4nO1dZ3vivBJdmm1woxlDaIbQe6gLL3fz///VVQHcZFuuQJ6cD7ts1hY6mtFoNIpm/vz5xS9+4YRCrVjP1CvdxrM7Eg2qpZWmadlsFvy5bj27NxGgu4Js7tDWhWd3KCzqRj6IU/fZXQqHoZUQoPTx7E6FQdlO6L2lVCERAnjbuVRwIJQtP7tnQWGzCg+9az+7a8HQcOADUH9234Kh5iSibHZVfXbnAiHjLKM3VbuVC6PaszsXCM5Kl9Uqz+5cIPwyen38vHlUdmGUf3bnAuHjx61HbWdGmeR7M+g0e+PJ7nT43hy3x+Pm+3DaTca9ZmfgoxFHtUtY6Zq93WFzVgVBVRVFEW8AH1X4s/PmMOkt6FrK5xwYrak70yi0C2E0tNPbbRATUUw5AHCDzDa7Xse7PSfnm3J/VK2scqNRP2i8ZdC7bFRBcaRiIaYI6uYy9eoS0YBrJboeffT7yxzAcjla+d4jdsYzgZqNgZUwG7uKqkoiRLm6lke5B5ZLX2IajGeq6pPNg5WqzsYu1qJgC53QBk7K/ZwByxG9MZl+CUHpYIB59eWifp+aKV43pBzs2ihnwlKjMxCd/VZQwtC5kRK2e0dBtTPajZSmDSmn0J9qbmlmlOsXKV5bnAJrmxVA+06ONr3a/VwPh8PyB73mlPo5Gzxfuh6iEI8ORfhqUvfYC0OriHK5kYe+NmfR8sGcZhFxsisdUDtXG7mIWD46py9Kf8KDEUHp+i7O4OCixsIHcVIvflw/J0YjX4zGihoXHwhVHIdnZCfkbOyax6jsmxNEYRN6Oq0I88jhAOAixMwHc9qFZFS0T6QRcYm9bmNVOB3qNpyYCjZGfWJkeZeEgDDCiiljpbQkuN+dY0ICwlC/KXZQztDMMylNmEXz+Ew2GYrQC8GokDNIaTkiGLoENe6OcJpXHY7uYurn7BIabISk+UAIszDLbTc76gOMlp/2X+1YbBPWuDuUbajJVOhWih8kD3WavMbdISpewYgg6MXtJbhSCmUfyBg/T0KYUng/z4z9U2yCERFT+s8/oVsEVRUwDB9wlNU/pX2EhCY+CMF4Kex5avN12e3H8+m1uXigeZ3Ox//tLoeNKHjEXWOlRKtykIu4/b6Me1cKc7u49san760iqLRRy8gojb0JIcGos9286XflGHSa4923KlCJS5hHQmjuRUhUhfNmNw8VG2jOL0ARPYUViRG/uq5DgI0wm1wjiAoAt34KDzVcWYlq+DjRwkUZRFU9TqJdzQe9y9YtoimKoRwi+A1bp9aBdGbjSKJQVjT3G+counIM2fqB7JyKqjKbR6JqZHTGGydJqV+hWt6RrIKoCBv3E58osJgcyXNK+C9Eqz0CIVFN7WJRNjuaF4UkKCH41O2kbO0pwnec2mbFYHy0R6JFMXAPNtbGVPUU3ckBJaYHW2hDmQVsy+L8AFu9i332kLA4WTkF9MObqpmP8hw+EB0rJyHQTDatRIoySXD62NExn4SImwBt/GcQkSKcniafOxYH4y46gBu+0AmJwiFxe0BC89vASfA9xLqdU89xBGICYS4+xlk5+H33budENeyZR5QY6Oc8PjcWg/PtReH4Egqn43HUI559vbdTbwKKMloREe6xd3Xi46WBcJtBLyYgjGkKzXFfztBFQSbuEl+vwuELjbhK378FJhRNmCIW4AgvvQU/AUbKOaEtQzBcz7CPtELqCPC08KlOjzfg6amoUAoJzCL1FG9/osBJoJ1JHSX8bxIkArDaClSaNFEjjZnHiIlAt15Gf1QTG/bCluKp+f9e2GpbMf4fhXe3fROVw5h4b/2aL+sokHHxXDZfZi9Ei7fr8C9+8Ytf/OLl0X7P+6AOaJfWOek98xOQ0f3LyBzzoxjx6XT6l9FL45fR6+NVGVUbjUawNQUzcrlVXPVst1qwDkhjuF6vh4bEFKUagOUXpbtlCP2b2+ChEn6mWlktOVYeaRnTO8XPYrH4aetr7aNU+viA3WxUADIyYCQXSwgfll82r5Wzuf5SGxZtXYav4suklWxa+mv5/8I/WZYl/W5B9R/PMJLlin1Fgg/pNzhLf8EzQ/gpwzIcB7rFcTKvGTitJZZlJetts4LEgBc1+LH1j2FZSCidZhmEv8YhaYCGZQ5CZvmV+e5o+x/D8EvwoTuCX27V2oIE2zTclmDhsFkSdlXgDxm9Xagt3OrPn/ySSevgeP2iTx7qEzeyMKrAx3k0vHnjmwi8gVGNY1GLMhoumTHd5miA/+NyoDUe/mc0jFqQURb8hb6PZViZw53SZavBn/CWaxg5JE5MWYICwCOBIemMMhL4H44ZacPsCH2HZLwUVcWMuhIeiUgYQQlwWgP2iGWHxVKljL84zT/0rASFJA/t33Vru51drVaINqdh5B7t1+FzTK6GzEJXg9KUjLfkMaMRYi3Z51FgRrksB4a3frNGlTSiJN2lUh2h3ppmexE1Y1QuhmTrPuBg8J+Pf9fR4Biegow0oMEcuyrlbeYwGCMGKUta7uvjU8AUlvd/Z9A7ptvCUCSc8ZJ3iSFoTQNNNuOLdfAT2WCsYMtLjZPJqReCM4LdN45PG0np0RXMWjM+wFg5EhkNgQVkzZcJ4VAwurix1eAcshQEY8RiQ2DuS0ky2Tc0SYybn0/4Fm/sBolRm7UbSWhbWX0oMKO0Qx7cQIzaqE3WeisTc7irArINxmf6nNVWkBjVWauyAgCNhquFkZHtmQgYcdZBQh1kH1MaGSN9tPOSzZ6TGCHeVmOxAowe93SR9qZlJwcpuNYZBu2GRtr0Y2wbHhTg4OuGw4lRW7JYD4Q1mFv8nSaeoVkHQiFkpAvjAbMxQ0/pagaXV4uiEhh9MNCetPMmtIGMdPEiRtYuhmSEZMTYM4+UkaP2UMYssuc37UB+kWRWJwIj5LxyjAWc8fsQI9YxeUlwGTH2THLImumToMYbZjBSOouqEBgNsfdKAGNaFxjHVDshZGRnhDxRVpcDsg0a/gxXK94iVgIjjaNk5JibJlIZVcwyQnK5vdeCM96aVsCJEScR8DdORk4yQlpnWPmwBUHWAM4P2ZrZjMAI2g9u2CgQcB+OQIysOz5KGUEja3KNoI3CFnsJPknWrD8OjCwuuxWBGFmaJDOyz02Ns7hyKJAAvQi0o1panycwylqbiIaRtck6Sevs6xFaYc0aizyAsoNvQ2KEFgCbNxKKUV/fZz6w4ggysvsMuIMmZYQzi0vjVjlbIIXAqKRv3KNitDK5m/gZZFFZq+9t876wp2puHg4534K+DWF2IGtvPpuoIge+HyWjut3YrfGqZ4huYUYW+1GTCFMQDhD7CSeiZM/9gCMp5p+jJZZxS2fmlxGazGnZMHC1W4hCZ3TbH0kmBWuMLLqJm4PrUFbj7IGhPzenwjIfW8izJhjSwIxuAQJ9g/gh4xCCTUaAt2F4q0uOIKLbDOLIw14gqdgQNe4ylfwywmqXlkddxKm14oE7jUhaZQRXmMzdKtXSOBBp27UUb+yJ9gs1zFq0d4TDSkODmjQ+DLlufTOq4uAbx49Ww9USRs74tmxmdLN14E+WW390W7V6DkW3OMYey8Bmxe4vIFSQirPLcj0zfDyQxx2Qmexnt9Xt1oprjWUM9sODUdvG6DFvOBzS5MB0gcNmmFrYC+pmUNiJ4RmGxYPAkhJcYW/a5i/g0VviF2VWZjW9eQ6bIo7lGZ7H8U3Dek7FyLwRq0gGB1iWa7fdmt0Lyhgf5JglsdfI1Di5Ad1/9xaMG9dC1tgwAqNPUA9GLTTOlpB7t8/fVI9lVlD/NZ5lDZH2h6faXd4flPmRfU+L6aP4gpPtgtF4/E0mW/hxbxjrCi8bksPm//I8/9dxf9S1RmxuLQ5HwIFntQwe9lqlUjGcehg81dqwDx/MrWtOkYwiS4ocPFAtZsG4cbmhpYu19VKSeLiNGGnlknEVrta6YHY5njrh+A0pUlQtOJ5zmXcT1arbwRVaDRxDUY8WiD9u5/P+0yXjsKDPmjVOuwniFzCEY5c4gSwR63McnHZ8BKDgGp9k4SK4MNq9aA/Qy6ias0bv40bNPa7iAHoZraAKEHzU2IBWOLh/8QdqGWXR1tB9kx0p2jm0faHJRGwCpYxw87YIUHzIr7Ezpvl+k0pG1c/byW9ClfS62pKRsUfq/3c+KGTUqI/wsZlEm8Y6LFo3z4ntB6h3QCGjAm6fo1y1IkABHVmwUiaIktPMIxR0YLnkijdW0wzP5urBKmDm/0Ff0V2dgDMi8+skfwe1UukGL27XhnDvbeufRJvZ/l3wnmV9XhZPz5XhF543qnrRJ8WMFRT9Tb3kfX8nXFPez0zUl75QbsaC5upuRxDfhlIzRXWz/KSKb6J4TYXu/ntTEENkH0sQU1WkzO00E0X1DSxeTxBpU4pNhZT4+pflYQIX4Ur58EZMpYRwyQljB0x1IlJnfZvCxCjq8YXdhw7KGkQtIjiTUDq0l51MPZQS1U9ivqaAM4i9aG6QE86BJPhZZG5JR8MW5YgFzVueKsXXeN9zvb1WHjGE3T19p898b7t7WrUXyvUGMX3UjFH9plV9JGcFs+llUgcNTo9kb+LZb68MyWEV5UVSuYwVPRdkAEfNkJFYVLcvYMh7W0MCXN8pBgEGxgS6onCkX81iwXVjTGwppoIs/+Zk8qIweyKn68Fc7iJg3rYvc1ZWIKcnmb3pxpKcWAnodA6siZsBpyfMp/m3tRyJmApqfae2ZNiioE4S3bN3JqK9vIoPD9WKnb3Cluhe9jRaXL9ICb4FPyktrfgmJZVXhERyli8mZ2KVySCGW8cjr6pFULHnle+Mvx2y//t3FsxoOhUVEFXhuI9JUgvnvP/ge8N+qUtFEEhqF/kidd0d3SocR1AVxLUMjaioymzfjMqVbY5nonvB5kiyBZ7c67aIQFSpr/005LTqTPdfZ8DGvXJLRElrvzyrJMLKOsr2axysfsvgOj7RFQ2KLIXojKrwI6rkdJ5dxtMFpbw6i+n4MjsLtBWQ1FB22wTiskSmhQohiefj4TKe967Njk1qg87i2puPL4fjWaQse3QnFLQoA5GSv/KcIiwidqscpqTO2+3xuNkcj9vtGSzPuJgYLCXmr5ZYpIR8U7LQMyBwMxETAlvaRIuoEghFH7X2MOIxI5ZgKLFyUFKE4gkbPq0QZHzJ06e0hfOihSLGtyFbJFUF2wg1XHVYLyRuH+KvP5DwZEoiNfciyfLeCR00XpISU3LZ7ZvJGAg1yZoxO2KUJlIooYJY/rGYxat6ojBL/Ki+d46vOLaonp9yvLMX45lOoNln/cbLYOceuAnIR31mWbnBToyWE6ya+eRj38GecHgQmI+Q2r/CMfZ8Q13N2pWOImxepnhH86KEFJQoCsolkQW10Op2u628952H+Uyx1QilBow195JQt1YlU77h0/ka7R2d+Uz1rs9tl44iqId5IstpLVPO6CiXi963RQa901n1MalERVXPp0SkA+RTN/LBpKiueC3Gp63gGStFsVfheApXt90PSjY+kNIn5R2lQW//tUUxYEvoFAVbURx5+7WfJmmoiyRCkJOPe0qD5nS8Ox022zOODMOI8Xm7OZx24+ki6VWn4kAIIMBNsgFEp4P+ir6vVPhwJpSxJTt4B+RdCGXKSd50jwp1F0KA0uvlSfdC101EAA4ZP14Y7nzeUEgtDxFlMu82kypehN7O3LnbBaR2wa8DPwMNT0KZ8nvdP257TqNMOcHMHhHA2zBkMkmlWYgGNIzey9j9PBnRzKP3uspf8BbRm9m6n7ce/UCfwXV3hPBehuEPhe/9ZkrnvT9yz6j3iqj+uD2sR5zhvRajG35cLMg5AAkIvWt10E8nSsFSWb0CiIpXLr6rhCBaGfvZxFsaBQNK5vOjTOV9Ne6OauvzfsRXrnffnw9Gu9WtdVtvuKj+JPwfTxWUJo+B3z4AAAAASUVORK5CYII=;" vertex="1" parent="1">
          <mxGeometry x="480" y="183.68" width="74.54" height="86.32" as="geometry" />
        </mxCell>
        <mxCell id="4HmFFEVede-YNTlv76Mg-21" style="edgeStyle=orthogonalEdgeStyle;rounded=0;orthogonalLoop=1;jettySize=auto;html=1;entryX=0;entryY=0.5;entryDx=0;entryDy=0;" edge="1" parent="1" source="4HmFFEVede-YNTlv76Mg-13" target="4HmFFEVede-YNTlv76Mg-20">
          <mxGeometry relative="1" as="geometry" />
        </mxCell>
        <mxCell id="4HmFFEVede-YNTlv76Mg-13" value="Train" style="outlineConnect=0;fontColor=#232F3E;gradientColor=#60A337;gradientDirection=north;fillColor=#277116;strokeColor=#ffffff;dashed=0;verticalLabelPosition=bottom;verticalAlign=top;align=center;html=1;fontSize=12;fontStyle=0;aspect=fixed;shape=mxgraph.aws4.resourceIcon;resIcon=mxgraph.aws4.s3;labelBackgroundColor=#ffffff;" vertex="1" parent="1">
          <mxGeometry x="780" y="280" width="82" height="82" as="geometry" />
        </mxCell>
        <mxCell id="4HmFFEVede-YNTlv76Mg-23" style="edgeStyle=orthogonalEdgeStyle;rounded=0;orthogonalLoop=1;jettySize=auto;html=1;entryX=0;entryY=0.5;entryDx=0;entryDy=0;" edge="1" parent="1" source="4HmFFEVede-YNTlv76Mg-14" target="4HmFFEVede-YNTlv76Mg-20">
          <mxGeometry relative="1" as="geometry" />
        </mxCell>
        <mxCell id="4HmFFEVede-YNTlv76Mg-14" value="Feature Store" style="outlineConnect=0;fontColor=#232F3E;gradientColor=#60A337;gradientDirection=north;fillColor=#277116;strokeColor=#ffffff;dashed=0;verticalLabelPosition=bottom;verticalAlign=top;align=center;html=1;fontSize=12;fontStyle=0;aspect=fixed;shape=mxgraph.aws4.resourceIcon;resIcon=mxgraph.aws4.s3;labelBackgroundColor=#ffffff;" vertex="1" parent="1">
          <mxGeometry x="780" y="440" width="82" height="82" as="geometry" />
        </mxCell>
        <mxCell id="4HmFFEVede-YNTlv76Mg-20" value="" style="shape=image;verticalLabelPosition=bottom;labelBackgroundColor=default;verticalAlign=top;aspect=fixed;imageAspect=0;image=data:image/png,iVBORw0KGgoAAAANSUhEUgAAAKcAAAA8CAYAAAADt6psAAAAAXNSR0IArs4c6QAAAARnQU1BAACxjwv8YQUAAAAJcEhZcwAAEnQAABJ0Ad5mH3gAAABfaVRYdFNuaXBNZXRhZGF0YQAAAAAAeyJjbGlwUG9pbnRzIjpbeyJ4IjowLCJ5IjowfSx7IngiOjE2NywieSI6MH0seyJ4IjoxNjcsInkiOjYwfSx7IngiOjAsInkiOjYwfV19CuFICwAAChVJREFUeF7tnAlYFEcWx1/UGFTECwRPBPFAQIMXGiLxdhWjOcRr473eIKwrrBdKPOKqSATBA+NqgldQI6jIrkZXiUYii2LQqBE1BA9EFEK4jHFNv5rqnp6Zbhxgmm3H+n3f+/pVVztTz/5PVb3XM7zWqOaI58BgqJBq9MhgqA4mToZqYeJkqBYmToZqYeJkqBYmToZqYeJkqBYmToZqUZU4j5xcBnfydwkWGjmN9jBeRVQ3c1rUqikY49VGEXH6/W04hG2crmMMRnlRbOYcP6W/YAMGd6ZnGQzjYQkRQ7UwcTJUCxOnmRC02EfHPL1caM/LCxOnGREUPFIwc4CJk6FaKixOp7ZNDcwYHFrbGRiDIUWFxfmnoV0hOT1csLhjIbSnbPwD34OUHzYI9ummGbSHwdCleu3qHYxTlR7de7aD3v070RZAYWEpbFx/mPjYd+rE94Klnr8B589dJ30o6o7ujsRHfs58CHtjThF/7IQ+0LylDfGRtAu34NjRVNoyDkwEWto3FiyLe30EZ3aPt9rDByM9wapeHXLu8aNfyfFF2NjWJzF5D/fgZnpbsLCoCaWlv0FpyW+kX+495c4jDo52MHBIZ3Dv6gTVa1SHgvwiePr0Ge2VpoW9DYlhxOi3DWLA9/J8R5sE4f+p+P14xLE0aGgJv+QXQ3HxE9pb9ph5vPq4QRePNuT+u3VqBXXqWMDvvz+Dwl9L6BWmoQY9mpTIsEPUq3rij2s/a1PGhpHjnrgFkg8Ckk6mw6J5O+DqlZ/pGUM+mtQP1m+Wnt0D52yF7VuO6bznmuWxcDbpCvE9vToIyQl+QAf1WgiD3+0GCz8eA84uLch5nlsZ2TDPL5qMSZ8mTRvC0k8+ghFjetEzWk59fQmC/D+jrbKRiyUl+UdYzY0bX2vF2gng9qYDOS+Ohefz2EBO2N1pS5fUlBvk/4OfbCqLWSdETZs3gqTUdbJPqLz6ukHi6RVkNpciZn+QrDCRtRFTSdnGGOo3qENu+pbP5xgIE3F0soOvEpdAV4+29IwGHBvGICVMBGevhJPLaUuesmLp1qMt7E9YDFNnD4aGjerSs4ZgrHLCRLp0awM9PNvTVuVRRJx+Y6/D5bgEwdIPJtCeqiVwkQ90cG0J13/IgkC/rTB8QAg5Xky9Sa8AsKxbC6b5DqEtLcEr/kxmOTE4k0wfHw4TR4USHzG2bFOvviXsOTgfanNL4MnjaWR12cPNMEVFpfQKDTP9h1JPA44Nl18xS+fHwKhhn8CsyRvgwN4zZKkuaxzGxrIqbLKsOF255Vv8Hr5/iYJOTjOhWb2x0LNjAHmdL3eeJts4U6HYzGlnXSLY/wurerXJsuTpPhe2Rx8jPh7fH/gxJB5OoVdp9lC45PF0dHeAWQG6IkFhr1mxDw58eQaOxH1HfLy5xoIzpx23PPtP3wQjh66EkAUx4Mfd4GH9l9IrNAz/sCd3rUaMOCYcmxj3trMg6tNDcOLfFyF2VxJMnxAuiEsKY2MZ77OG9NWq/QY56oN7UTG4BbiblQtPSp/Cjet3yevMnhLJnX8JxKkG0tNuw+jhq2hLS2FhCWxYF09bGjxEy1EHV3t4/XXtdhxvvv7eC8Gbu2vHSdoqmxpc0oOvo3/9JS7pO554gbY0NLatR47iMSFDei+WTFA2cLMwxiqFsbEcPZQC8wO20ZYhDx/kU08DfqFHX7BIfl4h9SqPWYsz48Y9KBFlomKwenD/3mPaAmjv3Jx6AK3bNKGehvgDydQzRCqBkePmjfvU00VfcDaN65OjeEw4Vr7ioQ/GiLFKUZ5Yvv3mKvUM+Sr2LGT8qH0PXOIxEUy9HkX2sh+M8qQ9pkMRcT7MswDfld0EWxntSns0PMotEExJsjJzqSfNvbuPqAfQroM2SXFxs6eehszbD6hnCO4fjSX7fh71dMl9+Av1dBGPSTxWKeRiLU8st25Kf3h4erj5w707uuOwb9WYbD+ivwiAE+dW07OmQRFx7k20NzCegBmboV2zKYK9N7BCZVajsLS0oJ40llxywpOTrV22HuboigX3i3I4ttadmUyJeEzisUohF2t5YtFPvKTw7hsM+/d8A3mPDZfvTp0ddcpqlcWsl/VmLaypJw2WmniupGdSD+Aal92LsXewpZ4h+vtCUyIek3isUsjFWp5Y7FvJ9/HgFmTGxAjo7uIHk0avg/VrDsJ/uOSIB/eho8f1pq3KoYg48WcaOSWxgqXf3kJ7AMY9tzUwpRjk3QWm+3nTli44xrpWtWlLdz94+2Y29TSERUn/0A7LLpgYKIV4TDjWbbvn0pYuOGNhrFLox4JlJTkWhIyiniFY+RCDM+fhg8mwIng3zOTEKqauVS3qVQ7FZs5q1V4TTIwT1IK/P28hWB/QbP6VYmXoRPLIUsykaQPJExee4qInsG93Em0B/OvIfyH5jDY5wL0fLlfi2QkTjc92/tXoL7xUBBwTjo0Hy0z6RX8U5sKQ0bRliH4sWCRfvmYCWNtY0TNcfM4t4OzFMMnsm6fn286wabsf9B2gfWTN8+zZ/6inQS5xKy9mvazzJZPomAC4/FM0ERge126YSs7zbIlMMHiEOZk++uTBG/fd5XByE5NSQ+F0Sih5wnQnq+ykqzLgmHBsYjBLzsjeQZKP1GuR5NhvkDupM8qhHwsW+tMyNgmxnDj3D/IBxFjkvm/Qw9MZfMZ6QeyRxXCJ+7f7jwbDstXjISJ6FmzbpZ3RsTSGZgrMWpwIFr0RuyYNiMDwKCZ8bRysXLKHtrTkPMiHLu1m65RP8AsfeBOxdog/XU4+ew3edJpJe5UBx7acWzrFYFKDMya/f4wIjYetUYnEl6I8sciJs5G1dqbFFaR3v44wK+Bd8mUd/JDyRITGUa/yKPLFjxdxE6ruqREWvfHbMoO8u4JLR3tSWsFE48r3mWQjL17O9cn8KQf69giC+UtGETGg5eYUkH+P+8Fli3aS66SK2jxl9Ykp67pwLuk4/+018BnjJYwDH8leu3qHHPEJD37wynoNY2N5kJ1HTJ850zZCZFg8TJ09BN7hxOjopK1S4BhOHE+Do/EpnMjla6XlpcJ/dtt37jAIWTWOtjQ1PNdWmsQBkw3xng4LyG4OL/7tOv7FD1w+eHZsPQ7zfKNpyzhyn+yjnuaG46M6humx4hI0p3ZNSd1Trn5bWcx+WWcoQ0FBMVxIyVBMmEiVixMzS31jMKSocnE2tqsPcxd8KFj3t5QrYjNebhQRZ8w/vwYnu4mC9eosXTzWBx9t4vNb3jZHHKE9jFcRRcSZn1dkYMaApQ59Y7y6mF1CZP2Gj2AsU3+5MTtxMswHJk6GamHiZKgWJk6GaqlycWLmjj+L5S1N9DNdBkOMIs/WGQxTUKmZE/9WEG8Mhqmp8MzJYCgNS4gYqoWJk6FamDgZqoWJk6FamDgZqoWJk6FamDgZqoWJk6FamDgZqoWJk6FSAP4A53kkD0Gw5EQAAAAASUVORK5CYII=;" vertex="1" parent="1">
          <mxGeometry x="976.000048828125" y="378.0000244140625" width="167" height="60" as="geometry" />
        </mxCell>
      </root>
    </mxGraphModel>
  </diagram>
</mxfile>
